<svg xmlns="http://www.w3.org/2000/svg" xmlns:xlink="http://www.w3.org/1999/xlink" width="200" zoomAndPan="magnify" viewBox="0 0 150 60" height="80" preserveAspectRatio="xMidYMid meet" version="1.0"><defs><g/><clipPath id="3d1b57f06a"><path d="M 9.617188 2.324219 L 70.367188 2.324219 L 70.367188 56 L 9.617188 56 Z M 9.617188 2.324219 " clip-rule="nonzero"/></clipPath><clipPath id="922ddd1916"><path d="M 20 22 L 66 22 L 66 57.824219 L 20 57.824219 Z M 20 22 " clip-rule="nonzero"/></clipPath></defs><g clip-path="url(#3d1b57f06a)"><path fill="#14cf93" d="M 14.230469 55.839844 L 37.496094 6.742188 L 49.269531 31.578125 L 70.617188 22.324219 L 64.4375 23.40625 C 61.4375 11.300781 50.515625 2.328125 37.496094 2.328125 C 22.164062 2.328125 9.753906 14.746094 9.753906 30.085938 C 9.753906 36.398438 11.851562 42.207031 15.410156 46.867188 Z M 14.230469 55.839844 " fill-opacity="1" fill-rule="nonzero"/></g><g clip-path="url(#922ddd1916)"><path fill="#14cf93" d="M 32.265625 45.042969 L 35.90625 37.351562 L 43.105469 34.234375 L 37.480469 22.355469 L 24.445312 49.917969 L 20.640625 52.113281 C 25.3125 55.691406 31.152344 57.824219 37.496094 57.824219 C 43.84375 57.824219 49.679688 55.691406 54.351562 52.113281 L 50.550781 49.917969 L 46.941406 42.304688 L 52.746094 38.941406 L 60.75 55.839844 L 59.566406 46.863281 C 63.109375 42.207031 65.222656 36.382812 65.222656 30.082031 C 65.222656 28.722656 65.125 27.394531 64.929688 26.082031 Z M 32.265625 45.042969 " fill-opacity="1" fill-rule="nonzero"/></g><g fill="#000000" fill-opacity="1"><g transform="translate(77.969901, 39.276702)"><g><path d="M 22.578125 0 L 17.6875 0 L 15.921875 -5.421875 L 6.90625 -5.421875 L 5.140625 0 L 0.359375 0 L 8.484375 -23.53125 L 14.453125 -23.53125 Z M 11.1875 -18.625 L 8.15625 -9.34375 L 14.640625 -9.34375 L 11.59375 -18.625 Z M 11.1875 -18.625 "/></g></g></g><g fill="#000000" fill-opacity="1"><g transform="translate(100.897659, 39.276702)"><g><path d="M 12.859375 0.34375 C 10.691406 0.34375 8.78125 -0.101562 7.125 -1 C 5.476562 -1.90625 4.1875 -3.265625 3.25 -5.078125 C 2.3125 -6.890625 1.84375 -9.117188 1.84375 -11.765625 C 1.84375 -14.421875 2.3125 -16.648438 3.25 -18.453125 C 4.1875 -20.265625 5.476562 -21.617188 7.125 -22.515625 C 8.78125 -23.421875 10.691406 -23.875 12.859375 -23.875 C 15.128906 -23.875 17.054688 -23.429688 18.640625 -22.546875 C 20.222656 -21.660156 21.347656 -20.3125 22.015625 -18.5 L 18.625 -16.421875 L 18.21875 -16.4375 C 17.71875 -17.65625 17.035156 -18.53125 16.171875 -19.0625 C 15.304688 -19.59375 14.203125 -19.859375 12.859375 -19.859375 C 10.910156 -19.859375 9.390625 -19.210938 8.296875 -17.921875 C 7.203125 -16.628906 6.65625 -14.578125 6.65625 -11.765625 C 6.65625 -8.960938 7.203125 -6.914062 8.296875 -5.625 C 9.390625 -4.332031 10.910156 -3.6875 12.859375 -3.6875 C 15.921875 -3.6875 17.796875 -5.171875 18.484375 -8.140625 L 18.890625 -8.140625 L 22.3125 -6.359375 C 21.664062 -4.128906 20.5625 -2.453125 19 -1.328125 C 17.445312 -0.210938 15.398438 0.34375 12.859375 0.34375 Z M 12.859375 0.34375 "/></g></g></g><g fill="#000000" fill-opacity="1"><g transform="translate(123.970225, 39.276702)"><g><path d="M 7.71875 0 L 3.0625 0 L 3.0625 -23.53125 L 7.71875 -23.53125 Z M 7.71875 0 "/></g></g></g></svg>